<?xml version="1.0" encoding="UTF-8"?>
<svg viewBox="0 0 640 480" xmlns="http://www.w3.org/2000/svg">
 <path d="m345.1 13.518c-2.684-0.39002-5.578-0.44403-8.663-0.13501-1.233 0.12396-2.504 0.302-3.798 0.54102-2.588 0.479-5.3 1.19-8.116 2.142-2.111 0.71503-4.271 1.568-6.502 2.557-7.436 3.297-15.525 8.135-24.104 14.651-1.067 0.76703-2.145 1.564-3.23 2.374-0.84601 0.63196-1.69 1.278-2.547 1.935-0.83301 0.63696-1.67 1.279-2.512 1.94-0.15198 0.11896-0.302 0.23297-0.45398 0.35297-0.323 0.255-0.64902 0.52704-0.974 0.78503-0.046021 0.036987-0.096008 0.065002-0.142 0.10199-0.26602 0.211-0.522 0.42297-0.78802 0.63696-0.56998 0.45606-1.145 0.909-1.719 1.376-0.29898 0.242-0.59299 0.48096-0.892 0.72699-0.026001 0.02002-0.056 0.036987-0.082001 0.057007-0.47501 0.38898-0.94199 0.79901-1.419 1.194-0.483 0.40002-0.96899 0.78204-1.454 1.187-0.53702 0.45001-1.071 0.91901-1.611 1.376-0.36801 0.31195-0.73801 0.62695-1.108 0.94196-0.012024 0.010986-0.028015 0.018005-0.040009 0.028992-0.013 0.011047-0.028992 0.018005-0.041016 0.029053-0.38599 0.32898-0.76498 0.65497-1.152 0.98798-0.17902 0.15399-0.36401 0.30798-0.543 0.46301-0.074005 0.063965-0.13901 0.13397-0.21301 0.19696-0.55701 0.482-1.118 0.96503-1.678 1.454-0.357 0.31299-0.711 0.61499-1.07 0.92999-0.12903 0.11401-0.25101 0.23401-0.38101 0.34796-0.198 0.17505-0.39099 0.35205-0.59 0.52704-0.028015 0.024963-0.056 0.050964-0.084015 0.075989-0.82498 0.729-1.655 1.451-2.484 2.195-0.10101 0.091003-0.19601 0.18201-0.297 0.27301-1.917 1.724-3.859 3.493-5.799 5.29-0.085999 0.080017-0.16901 0.16302-0.25601 0.24402-0.103 0.096008-0.21298 0.19-0.31699 0.28601-1.747 1.624-3.498 3.275-5.258 4.952-1.358 1.294-2.72 2.609-4.084 3.932-0.52501 0.50903-1.042 1.031-1.568 1.544-0.13501 0.133-0.27098 0.26502-0.40701 0.39697-1.702 1.665-3.407 3.345-5.113 5.048-1.511 1.508-3.021 3.039-4.532 4.573-0.53201 0.53998-1.065 1.068-1.597 1.611-0.13702 0.13904-0.27402 0.27502-0.40999 0.414-1.952 1.996-3.906 4.002-5.853 6.0341-2.06 2.149-4.116 4.319-6.164 6.5-0.66103 0.70294-1.311 1.416-1.97 2.121-1.5 1.608-2.996 3.213-4.486 4.831-0.33202 0.36102-0.65799 0.72601-0.98898 1.087-1.754 1.912-3.513 3.821-5.248 5.742-0.56197 0.62201-1.117 1.244-1.676 1.866-1.276 1.419-2.537 2.846-3.8 4.266-1.073 1.209-2.143 2.407-3.206 3.615-0.75601 0.85803-1.511 1.716-2.261 2.574-1.145 1.31-2.287 2.611-3.418 3.918-1.157 1.337-2.293 2.675-3.434 4.006-0.49199 0.57398-0.983 1.149-1.472 1.722-1.571 1.841-3.118 3.676-4.653 5.501-0.35399 0.42102-0.71901 0.83301-1.071 1.252-1.445 1.724-2.859 3.433-4.268 5.137-0.42902 0.51697-0.85901 1.041-1.284 1.556-1.541 1.872-3.064 3.731-4.557 5.572-0.246 0.30298-0.50002 0.60998-0.74501 0.91296-0.15001 0.18604-0.30399 0.38202-0.454 0.56799-1.578 1.954-3.133 3.896-4.65 5.806-1.588 1.999-3.136 3.971-4.651 5.914-0.81898 1.051-1.607 2.072-2.404 3.105-0.90503 1.174-1.808 2.339-2.683 3.487-0.11801 0.15601-0.229 0.30603-0.34599 0.461-0.71202 0.93701-1.388 1.848-2.079 2.766-0.12701-0.18695-0.27301-0.36298-0.446-0.54096-0.268-0.276-0.589-0.534-0.959-0.78802-0.004013-0.002991-0.013 0-0.018005-0.002991-0.181-0.125-0.37802-0.24799-0.582-0.367-0.069-0.039978-0.14102-0.085999-0.21201-0.12598-0.052017-0.028015-0.11299-0.05304-0.16499-0.081055-0.24101-0.12799-0.494-0.25897-0.76-0.37897-0.080002-0.036011-0.16802-0.078003-0.25-0.11401-0.505-0.21698-1.052-0.40802-1.636-0.59802-0.29098-0.094971-0.59399-0.18994-0.90201-0.27698-1.033-0.29498-2.162-0.55298-3.364-0.76502-3.414-0.60095-7.429-0.86896-11.542-0.69196-1.541 0.065979-3.09 0.20898-4.634 0.39996-0.134 0.017029-0.267 0.02301-0.401 0.040039-1.016 0.13397-2.023 0.302-3.02 0.49396-0.26199 0.049988-0.519 0.10101-0.77899 0.15503-0.42902 0.089966-0.86 0.18396-1.283 0.28497-0.026001 0.006042-0.050018 0.017029-0.076019 0.02301-0.96099 0.23303-1.9 0.48498-2.817 0.77899-0.30299 0.096985-0.599 0.211-0.895 0.315-0.21199 0.072998-0.422 0.15601-0.631 0.23401-0.19 0.070007-0.384 0.13397-0.57199 0.20703-0.453 0.17798-0.893 0.35095-1.328 0.547-0.65601 0.336-1.285 0.68896-1.929 1.035-0.916 0.49103-1.83 0.98297-2.724 1.493-0.464 0.26599-0.93001 0.534-1.389 0.80499-0.108 0.063049-0.21199 0.13202-0.31999 0.19604-0.898 0.534-1.778 1.074-2.656 1.63-0.19099 0.12097-0.375 0.24896-0.564 0.37097-0.798 0.51202-1.593 1.019-2.375 1.551-0.020996 0.013977-0.041 0.028992-0.061005 0.044006-0.79599 0.54096-1.595 1.096-2.375 1.659-0.30699 0.22095-0.614 0.44397-0.91899 0.66797-0.707 0.52203-1.401 1.059-2.096 1.599-0.256 0.19904-0.51 0.40399-0.765 0.60498-0.602 0.47705-1.209 0.96002-1.803 1.452-0.157 0.13-0.32001 0.25403-0.476 0.38501-0.602 0.50299-1.19 1.024-1.783 1.544-0.478 0.41797-0.95801 0.83398-1.431 1.263-0.098999 0.089966-0.19701 0.18201-0.297 0.27197-1.777 1.623-3.514 3.336-5.232 5.117-0.33699 0.35004-0.683 0.69098-1.018 1.046-0.19301 0.20502-0.37801 0.414-0.57001 0.62097-0.362 0.38904-0.718 0.78302-1.077 1.179-0.744 0.82202-1.496 1.652-2.231 2.507-0.20799 0.242-0.41899 0.492-0.62599 0.737-0.30301 0.357-0.597 0.71997-0.899 1.084-0.54901 0.65997-1.082 1.32-1.627 2-1.286 1.604-2.577 3.255-3.847 4.974-0.095001 0.12799-0.186 0.255-0.28 0.383-0.43901 0.59698-0.869 1.192-1.307 1.803-0.024002 0.033997-0.046005 0.063049-0.070007 0.096008-0.009995 0.015015-0.014999 0.033997-0.025986 0.049011-0.46901 0.659-0.94301 1.326-1.412 2.001-0.45 0.64905-0.90401 1.3101-1.353 1.975-0.01799 0.026001-0.031998 0.054016-0.049988 0.080994-0.21701 0.32098-0.43001 0.64002-0.64601 0.96503-0.254 0.37994-0.513 0.758-0.76599 1.1429-0.341 0.51904-0.675 1.037-1.016 1.565-0.12599 0.19501-0.241 0.38702-0.36699 0.58301-0.46901 0.729-0.94 1.45-1.409 2.198-0.002991 0.005005 0 0.013-0.002991 0.018005-0.059998 0.26202-0.108 0.53302-0.153 0.79804-0.003006 0.016968-0.005997 0.034973-0.009003 0.052002-0.035995 0.21899-0.068008 0.44501-0.093994 0.66498-0.027008 0.224-0.043015 0.44501-0.060013 0.66998-0.001999 0.02301-0.009995 0.046997-0.011002 0.070007-0.00499 0.070984-0.013992 0.14099-0.01799 0.21204-0.001999 0.041992-0.001007 0.082947-0.003006 0.125-9.92e-4 0.005981-0.002991 0.010986-0.002991 0.016968-0.001007 0.018005 0.008987 0.036987 0.008987 0.054993-0.002991 0.070984-0.015991 0.14099-0.01799 0.21204-0.003006 0.11896-0.005997 0.23798-0.007004 0.357-0.001999 0.375 0.003006 0.73895 0.027008 1.115 0.001999 0.024963 0.003998 0.047974 0.005997 0.072998 0 0.005981-0.003006 0.011963-0.003006 0.016968 0.013 0.18304 0.031998 0.36304 0.050995 0.54602 0.009003 0.085022 0.019012 0.17102 0.029007 0.25598 0.003998 0.037048 0.011993 0.072998 0.016998 0.11005 0.031998 0.258 0.076996 0.51495 0.12 0.77197 0.001007 0.005005-0.003998 0.012024-0.002991 0.018005 0.050003 0.29401 0.093994 0.57398 0.158 0.86798 0.064987 0.29504 0.14899 0.586 0.228 0.88 0.07399 0.27203 0.153 0.54004 0.239 0.81104 0.015991 0.049988 0.029999 0.10095 0.046997 0.151 0.080002 0.24597 0.161 0.495 0.25101 0.74097 0.018997 0.052002 0.043991 0.10199 0.062988 0.15399 0.007004 0.019043 0.018997 0.038025 0.026001 0.058044 0.082001 0.216 0.16 0.435 0.24901 0.64996 0.009995 0.025024 0.013 0.052002 0.022995 0.075989 0.12199 0.29401 0.256 0.57904 0.39 0.87201 0.186 0.40302 0.375 0.80902 0.584 1.209 0.042007 0.078003 0.080002 0.15601 0.12199 0.23505 0.050003 0.092957 0.099014 0.18298 0.15001 0.276 0.003998 0.006958 0.011002 0.013 0.014999 0.019958 0.072998 0.13202 0.145 0.26502 0.22 0.396 0.403 0.70404 0.85899 1.399 1.331 2.087 0.009003 0.013 0.020004 0.026978 0.029007 0.039978 0.194 0.28198 0.37199 0.55304 0.576 0.83203 0.051987 0.070984 0.11 0.13599 0.16299 0.20599 0.19499 0.26099 0.398 0.52496 0.602 0.78198 0.146 0.18604 0.293 0.37402 0.44299 0.55902 0.080002 0.096985 0.157 0.19397 0.23801 0.28998 0.15199 0.18298 0.306 0.36401 0.463 0.54401 0.24699 0.28302 0.496 0.56598 0.75299 0.84399 0.36 0.388 0.73801 0.75903 1.116 1.137 0.020996 0.020996 0.039993 0.042969 0.060989 0.063965 0.19101 0.19 0.39 0.37701 0.58501 0.56403 0.22099 0.211 0.438 0.42401 0.664 0.63098 0.014999 0.015015 0.030991 0.030029 0.04599 0.044006 0.99901 0.91498 2.047 1.794 3.139 2.625 0.55901 0.42401 1.129 0.83698 1.708 1.237 0.022003 0.015015 0.042007 0.031006 0.064011 0.046021 0.00499 0.002991 0.013 0 0.016998 0.002991 0.276 0.19 0.558 0.37 0.838 0.55402 0.269 0.17596 0.534 0.35895 0.806 0.52997 0.061005 0.036987 0.117 0.082031 0.177 0.11902 0.17099 0.10602 0.34999 0.19898 0.522 0.30298 0.069992 0.041992 0.14099 0.083008 0.21199 0.125 0.15201 0.091003 0.302 0.185 0.455 0.27399 0.048004 0.028015 0.10001 0.051025 0.148 0.078003 0.09201 0.05304 0.186 0.10303 0.278 0.15503 0.095001 0.052979 0.18201 0.11902 0.276 0.172 0.005005 0.002991 0.013 0 0.017014 0.002991 0.19099 0.10498 0.383 0.20898 0.575 0.31097 0.39299 0.21106 0.78799 0.414 1.186 0.612 0.098999 0.049011 0.20001 0.092041 0.29901 0.14002 0.028 0.014038 0.052002 0.036011 0.080994 0.049988 0.485 0.23505 0.974 0.44305 1.465 0.65906 0.21201 0.092957 0.41901 0.19598 0.632 0.28497 0.072998 0.031006 0.145 0.060974 0.218 0.091003 0.493 0.203 0.981 0.40698 1.476 0.58899 0.242 0.088989 0.48601 0.16498 0.729 0.24799 0.067001 0.02301 0.135 0.046997 0.203 0.070007 0.33299 0.11304 0.66699 0.22803 1.001 0.33002 1 0.30701 2.007 0.56702 3.003 0.77502 0.114 0.023987 0.23399 0.03595 0.34799 0.05896 0.046997 0.009033 0.090012 0.031982 0.13701 0.041016 0.16499 0.031982 0.33899 0.055969 0.50499 0.085022 0.33 0.056946 0.66701 0.10394 0.99501 0.14996 0.16499 0.02301 0.327 0.044983 0.491 0.065002 0.492 0.059998 0.97501 0.107 1.463 0.13898 0.325 0.022034 0.65201 0.048035 0.97501 0.057007 0.245 0.007019 0.49199-9.77e-4 0.735-9.77e-4 0.108 0 0.21399 0.002014 0.32199 9.77e-4 0.018005-9.77e-4 0.036011-0.007996 0.055008-0.008972 0.016998-9.77e-4 0.034988 0.008972 0.052002 0.008972 0.25499-0.005005 0.506-0.019958 0.758-0.033997 0.157-0.008972 0.314-0.015991 0.47-0.027954 0.153-0.012024 0.304-0.03302 0.45599-0.048035 0.005997-9.77e-4 0.012009 0.004028 0.018005 0.002991 0.30699-0.031006 0.612-0.070984 0.914-0.11499 0.078995-0.010986 0.16-0.018982 0.23799-0.031006 0.231-0.036987 0.455-0.072998 0.683-0.11798 0.037003-0.007019 0.073013-0.01001 0.11-0.017029 0.26401-0.052979 0.522-0.10895 0.78201-0.17297 0.29399-0.072021 0.59299-0.15802 0.883-0.245 0.074997-0.02301 0.151-0.046021 0.226-0.069031 0.028-0.008972 0.050995-0.031982 0.078995-0.040955 0.025009-0.007996 0.050003-0.015015 0.074997-0.02301 0.062012-0.02002 0.12701-0.036987 0.18901-0.057007 0.101-0.035034 0.202-0.057007 0.302-0.093018 0.56599-0.203 1.119-0.44098 1.659-0.70502 0.003998-0.001953 0.013992 0.005005 0.018005 0.003052 0.54399-0.26605 1.069-0.56702 1.584-0.89703 1.881-4.484 3.511-8.394 5.051-12.007 0.125-0.29394 0.235-0.56299 0.35899-0.85297 0.057007-0.13403 0.117-0.26703 0.17401-0.40002 0.31799-0.74097 0.633-1.47 0.942-2.187-0.036011 0.383-0.061005 0.76697-0.086014 1.149-0.00499 0.070984-0.013 0.14099-0.01799 0.21198-0.037003 0.59802-0.059998 1.203-0.070007 1.797-9.92e-4 0.083984-0.00499 0.16602-0.005997 0.25-0.005997 0.578-0.003998 1.146 0.014008 1.721 0.009995 0.30798 0.024994 0.61401 0.041992 0.92102 0.022995 0.42297 0.055008 0.84796 0.089996 1.269 0.005997 0.067017 0.014008 0.133 0.020004 0.20001 0.057999 0.64398 0.11 1.275 0.19701 1.914 0.003998 0.031006 0.015991 0.060974 0.019989 0.093018 0.173 1.253 0.39801 2.499 0.67801 3.731 0.033997 0.15002 0.067993 0.29901 0.10399 0.448 0.143 0.60199 0.317 1.204 0.48401 1.801 0.011993 0.042969 0.020004 0.086975 0.031998 0.13 1.553 5.481 4.102 10.737 7.315 15.669 0.049988 0.075989 0.10998 0.14697 0.16 0.22296-0.025024 0.031006-0.046005 0.065002-0.070007 0.096008-0.27499 0.34802-0.547 0.69-0.82101 1.044-0.12598 0.16302-0.24298 0.328-0.37 0.492-0.482 0.62799-0.96799 1.26-1.449 1.905-0.496 0.66602-0.99498 1.356-1.49 2.041-0.19101 0.26404-0.37501 0.534-0.565 0.79999-0.494 0.69104-0.98901 1.386-1.482 2.097-0.059998 0.085999-0.12599 0.16797-0.18599 0.255-0.22401 0.32398-0.44301 0.651-0.66701 0.97998-0.026993 0.038025-0.063004 0.070984-0.089996 0.10998-0.321 0.47198-0.634 0.93402-0.955 1.415-0.003006 0.004944 0 0.013-0.003006 0.016968-0.082001 0.12299-0.159 0.24799-0.24199 0.37201-0.005005 0.005005-0.016006 0.007996-0.020004 0.013977-0.029007 0.041992-0.065002 0.085022-0.093002 0.12799-0.433 0.65204-0.852 1.316-1.284 1.986-0.054001 0.083008-0.11301 0.15698-0.166 0.23999-0.003006 0.005005 0 0.013-0.003006 0.018005-0.405 0.62903-0.81599 1.281-1.22 1.925-0.002991 0.005005 0 0.013-0.002991 0.018005-0.43201 0.68701-0.87001 1.385-1.302 2.091-0.082001 0.13403-0.16501 0.27002-0.24701 0.40503-0.278 0.45697-0.56099 0.89996-0.83899 1.363-0.13701 0.229-0.265 0.45502-0.40201 0.685-0.002991 0.005005 0 0.013-0.002991 0.017029-0.46501 0.78101-0.936 1.559-1.401 2.361-0.18401 0.95599-0.291 1.925-0.345 2.897-0.001007 0.005981-0.003006 0.010986-0.003006 0.016968-0.028 0.48102-0.037003 0.97504-0.031998 1.463 0.009995 0.98303 0.087006 1.966 0.218 2.956 0.011002 0.085022 0.015991 0.16998 0.028 0.25598 0.050995 0.35504 0.11299 0.71204 0.17799 1.068 0.01001 0.054993 0.016006 0.11096 0.026001 0.16596 0.082001 0.435 0.17801 0.86603 0.282 1.301 0.036011 0.151 0.083008 0.29999 0.121 0.45001 0.016006 0.060974 0.024002 0.125 0.041 0.18597 0.082001 0.315 0.177 0.62701 0.271 0.94098 0.014008 0.048035 0.014008 0.10004 0.028 0.14801 0.201 0.66504 0.43701 1.335 0.68501 1.996 0.11299 0.302 0.226 0.59998 0.349 0.901 0.001999 0.005005-0.005005 0.011963-0.003006 0.016968 0.401 0.98102 0.858 1.948 1.353 2.915 0.248 0.48297 0.50801 0.95898 0.77901 1.438 0.53999 0.95801 1.135 1.905 1.759 2.84 0.937 1.403 1.949 2.78 3.05 4.114 0.003006 0.002991 0.014008 0 0.017014 0.002991 0.364 0.44104 0.739 0.88501 1.121 1.317 0.004013 0.004028 0.014008-0.002014 0.018005 0.002991 0.15401 0.17602 0.308 0.35303 0.466 0.52704 0.005997 0.005981 0.009003 0.013977 0.013992 0.019958 0.216 0.23602 0.43201 0.46802 0.65202 0.70099 0.037003 0.039001 0.067001 0.085999 0.105 0.125 0.17099 0.18005 0.345 0.35602 0.51799 0.53503 0.61902 0.63898 1.252 1.266 1.904 1.879 0.86099 0.81 1.752 1.605 2.664 2.366 3.645 3.042 7.665 5.666 11.83 7.69 1.709 0.82898 3.447 1.55 5.187 2.164 2.855 1.006 5.731 1.717 8.555 2.051 1.129 0.13403 2.256 0.21405 3.364 0.22705 4.989 0.057983 9.723-1.143 13.775-3.945 0.74098-0.85004 1.458-1.71 2.168-2.554 0.48898-0.58197 0.965-1.166 1.44-1.745 0.474-0.578 0.94301-1.158 1.403-1.734 0.37601-0.46997 0.74802-0.93701 1.114-1.406 0.083984-0.107 0.16699-0.20801 0.25101-0.31598 1.168-1.502 2.293-2.994 3.37-4.481 0.159-0.21899 0.31198-0.43701 0.46899-0.65601 0.41802-0.58398 0.82001-1.162 1.225-1.745 0.18001-0.258 0.34799-0.51398 0.524-0.771 0.20198-0.29401 0.41701-0.58899 0.615-0.88202 1.009-1.491 1.974-2.972 2.9-4.454 10.111 3.121 20.56 3.717 30.607-0.534-1.21 1.107-2.442 2.212-3.764 3.413-1.807 1.641-3.467 3.151-5.54 5.03-0.070007 0.297-0.13496 0.60004-0.18697 0.89899-0.18301 1.042-0.24803 2.093-0.22704 3.15 0.002014 0.083008-0.009003 0.16699-0.005981 0.24902 0.002991 0.073975 0.013 0.14496 0.016998 0.21796 0.003006 0.06604-9.92e-4 0.13202 0.003006 0.198 0.013992 0.242 0.03299 0.48303 0.056992 0.72601 0.060013 0.60803 0.146 1.209 0.26601 1.818 9.92e-4 0.002991 0.013992 0.015991 0.015015 0.02002 0.058975 0.29999 0.11598 0.59198 0.19 0.89099 0.074966 0.30902 0.16598 0.61401 0.25597 0.92102 0.089005 0.30298 0.17502 0.604 0.27701 0.90698 0.103 0.302 0.21703 0.59601 0.332 0.89697 0.10199 0.26605 0.202 0.52405 0.315 0.78802 0.52399 1.237 1.166 2.451 1.892 3.65 0.001984 0.003967-0.00502 0.013-0.002991 0.016968 0.70198 1.157 1.484 2.284 2.348 3.387 0.002991 0.002991 0.014999-0.001038 0.018005 0.002991 0.214 0.27301 0.42499 0.55701 0.64798 0.82599 0.003036 0.002991 0.01503-9.77e-4 0.018005 0.002991 0.22299 0.26904 0.45401 0.54901 0.68602 0.81403 0.70497 0.80402 1.443 1.585 2.22 2.344 1.553 1.519 3.241 2.937 5.017 4.231 0.592 0.43097 1.185 0.84998 1.795 1.252 1.221 0.80304 2.472 1.536 3.747 2.207 0.005005 0.002991 0.011993 9.77e-4 0.017014 0.002991 2.226 1.172 4.512 2.137 6.794 2.829 0.65302 0.19904 1.32 0.37604 1.97 0.53003 1.302 0.30798 2.595 0.534 3.866 0.65198 0.636 0.058044 1.261 0.077026 1.884 0.083984 1.247 0.015015 2.469-0.075989 3.647-0.27997 0.58899-0.10199 1.164-0.229 1.731-0.38898 1.418-0.39905 2.76-0.97302 4.004-1.76 0.569-0.71503 1.134-1.425 1.685-2.134 0.12405-0.159 0.24402-0.31598 0.367-0.47498 0.38702-0.5 0.75101-0.99603 1.129-1.493 0.27704-0.36401 0.556-0.716 0.82703-1.079 0.23498-0.31299 0.46399-0.62598 0.69598-0.93896 0.40201-0.54303 0.79501-1.086 1.187-1.626 0.093994-0.13 0.186-0.25397 0.28-0.383 0.47998-0.66699 0.94699-1.338 1.412-2.001 0.033997-0.049011 0.07901-0.093018 0.11301-0.14203-0.006012 0-0.011993-0.002991-0.016998-0.002991 12.478-17.821 19.118-34.102 21.668-52.884 1.076-12.845-6.237-30.084-12.085-34.006 25.402-37.711 55.208-92.669 75.472-140.65 0.59-1.396 1.188-2.796 1.762-4.18 0.298-0.71899 0.58701-1.428 0.88101-2.144 0.272-0.66498 0.54999-1.33 0.819-1.993 0.34201-0.84204 0.67999-1.678 1.015-2.515 0.216-0.53802 0.41501-1.059 0.62701-1.595 0.76099-1.914 1.507-3.796 2.229-5.678 0.30499-0.79498 0.604-1.584 0.90201-2.373 0.15399-0.40802 0.30298-0.80603 0.45499-1.213 0.34299-0.91498 0.68201-1.824 1.016-2.73 0.10001-0.271 0.198-0.53802 0.297-0.80902 0.85702-2.341 1.687-4.65 2.475-6.925 0.35501-0.96899 0.67999-1.921 1.005-2.876 0.64801-1.909 1.244-3.7939 1.775-5.646 0.534-1.858 1.005-3.677 1.425-5.473 0.20898-0.89502 0.41-1.779 0.591-2.658 0.54599-2.642 0.95798-5.198 1.261-7.685 0.10001-0.82703 0.194-1.635 0.268-2.444 0.22299-2.421 0.328-4.769 0.324-7.02 9.77e-4 -0.005981 0.001984-0.010986 0.002991-0.017029-0.002991-1.504-0.057007-2.956-0.15701-4.378-0.845-12.094-5.139-21.192-11.842-26.103-3.154-2.311-6.903-3.806-11.198-4.431l-1e-3 -1e-3z" fill="#1a1a1a" fill-rule="evenodd" stroke="#1a1a1a" stroke-width="5.651"/>
 <path d="m109.31 253.87c-3.3179 3.9222-6.159 8.4782-11.01 10.715-4.983 3.3687-11.106 4.0171-16.403 6.7743-6.3844 1.3442-9.3405 7.6909-13.49 11.954-2.0361 3.0769 0.43549 3.6839 1.126 0.35364 2.6141-5.4641 5.8243-12.035 2.6643-17.967-1.8398-4.0449-4.2025-8.1493-3.5066-12.792 0.15412-6.9748 3.4278-13.267 7.2502-18.904 2.0743-2.6363 4.5791-8.6477 7.7022-8.1039 0.10362 4.8148 4.4075 7.6522 7.145 11.039 3.5726 3.4898 7.9064 5.9636 11.962 8.7776 2.1852 2.5399 6.981 4.1272 7.2752 7.4106l-0.7155 0.7425z" fill="#fc0"/>
 <path d="m108.88 250.51c-3.2198 4.6284-5.6376 10.474-11.027 12.984-2.7617 1.28-5.8838 0.69568-8.6906 1.8541-5.8692 1.9166-10.664 6.2489-14.47 11.044-4.1307 2.5352-3.5526 8.1226-6.3451 11.612-0.72291 0.9332-2.4478 1.5708-1.1967-0.081543 2.5058-4.0975 7.8351-6.4306 8.5913-11.538-0.90664-6.1081-8.4959-8.2073-9.1826-14.443-1.3994-6.1961-2.1916-13.3 1.4157-19.064 2.5487-4.6252 7.2138-7.4553 11.868-9.5295 2.349-0.98848 4.6074-2.2645 6.9793-3.1468 5.41-1.0994 10.352 2.1277 14.21 5.4436 2.0755 1.4014 3.1854 3.6242 3.8538 6.0095 1.0342 3.0748 1.9167 6.3129 3.9934 8.8547z" fill="#ff0" opacity=".512"/>
 <path d="m107.88 249.22c-2.378 3.0873-4.1073 7.1741-8.0435 8.5789-2.0928 0.99927-4.2919 1.8195-6.5888 2.2296-2.1696 0.49139-4.4233 0.61176-6.5617 1.2097-5.0462 1.9558-8.3557 6.8561-9.74 11.924-0.30504 0.58228-0.62018 1.9982 0.018677 0.56815 0.70749-1.8062 1.8419-3.7612 1.3569-5.7512-1.1464-4.7676-5.6274-8.1569-5.9247-13.211-1.0238-3.4182 0.83066-6.9258 3.3002-9.2164 2.0212-1.9593 4.5185-3.3076 6.705-5.0626 1.9181-1.4072 4.5469-2.7947 6.8551-1.4382 2.0391 1.4313 3.6855 3.3624 5.6652 4.881 1.8402 1.3057 3.5075 3.2124 5.7225 3.7776 2.0641 0.18527 4.3071-1.0688 6.231 0.087936 0.48564 0.34271 0.80509 0.87137 1.0041 1.4221l-2e-4 -2e-4z" fill="#f00" opacity=".512"/>
 <path d="m106.16 249.21c-2.6516 3.3608-4.7563 7.6925-9.0214 9.2638-3.1072 1.1568-6.406 1.7035-9.6638 2.2573-3.3022 0.40503-6.7482 1.3322-9.0534 3.8958-2.7755 2.5283-4.968 5.7021-6.1026 9.2965 0.71452-2.1851 1.9312-4.1806 2.3956-6.4628 0.58035-1.8827 0.15791-3.6971 0.74885-5.6522 0.51232-3.0478 1.5892-6.5164-0.26668-9.3225-2.6167-5.2527 5.8588-6.5005 3.7134-11.972-1.0063-2.7159-4.697-8.9457-3.0303-11.392 1.4595-2.5301-4.2486-5.4063-2.489-7.71 1.6-1.7952 4.8014-2.8433 6.6086-0.7549 2.4466 2.4872 4.7348 5.1455 7.1294 7.6919 4.9304 4.9533 9.0594 10.852 15.044 14.643 1.988 1.5836 2.6604 4.1532 3.9868 6.2171z" fill="#f60" opacity=".512"/>
 <path d="m96.482 238.87c-1.3666 2.583 0.98294 5.0739 1.3074 7.617 1.0109 2.6051-1.0686 4.6827-2.4417 6.6396-1.8239 2.9976-5.6741 1.9952-8.5831 2.6776-2.8987 0.86911-4.2097 4.2516-4.9411 6.8933-1.7128 2.6122-3.0196 6.2292-6.5823 6.6305 0.1554 0.24881 4.8428-2.3375 3.9239-4.738-1.0923-2.457-5.1149-3.1852-4.0904-6.6569 0.03714-3.0438 1.6555-5.7076 2.6103-8.5278 1.7341-3.5831 4.025-7.0122 6.9095-9.753 2.4047-1.5268 5.0912-2.7125 7.8419-3.4342 2.5576-0.53436 1.6986 4.6878 3.8593 4.1193 0.087204-0.48614 0.083-0.9821 0.18612-1.4674z" fill="#f00"/>
 <path d="m216.76 327.93c-2.5954 4.4335-5.947 8.6281-6.4432 13.948-1.5196 5.8197-0.094513 11.81-0.93309 17.722 0.8558 6.468-4.1464 11.367-6.7865 16.698-2.2245 2.9436-3.619 0.81458-0.70801-0.94421 4.2836-4.2827 9.4123-9.4954 16.058-8.4883 4.4265 0.38977 9.0831 1.2528 13.23-0.94745 6.5265-2.4652 11.372-7.6453 15.416-13.125 1.7964-2.833 6.6324-7.1946 5.0808-9.9591-4.5751 1.5037-8.6825-1.6114-12.786-3.0669-4.4794-2.2084-8.2537-5.4727-12.256-8.3618-3.1221-1.216-6.214-5.2108-9.4084-4.3963l-0.4622 0.9217z" fill="#fc0"/>
 <path d="m220.07 327.22c-3.294 4.5759-8.0024 8.8002-8.5776 14.718-0.28856 3.0302 1.3009 5.7802 1.1419 8.8125 0.14467 6.1726-2.3464 12.135-5.6025 17.319-1.017 4.7387-6.4785 6.0519-8.8409 9.8462-0.63966 0.99213-0.66718 2.8309 0.4749 1.1014 3.0308-3.726 3.4586-9.5278 8.0235-11.94 6.0619-1.1765 10.566 5.2824 16.675 3.8561 6.3088-0.74103 13.272-2.3567 17.508-7.6757 3.5142-3.942 4.6316-9.2827 5.0396-14.362 0.15092-2.544 0.60318-5.0983 0.64629-7.6286-0.76254-5.4677-5.4498-9.0554-9.86-11.591-2.0119-1.4912-4.4773-1.7986-6.949-1.6356-3.2438 0.047394-6.591 0.29214-9.6789-0.82095z" fill="#ff0" opacity=".512"/>
 <path d="m221.62 327.74c-2.1206 3.2695-5.3996 6.2595-5.4152 10.439-0.24634 2.306-0.28839 4.6527 0.088776 6.9553 0.25821 2.2095 0.89427 4.3749 1.0416 6.5904-0.16617 5.4094-3.6866 10.16-8.0059 13.151-0.44768 0.48132-1.6782 1.2494-0.54201 0.17133 1.468-1.2679 2.9345-2.988 4.9724-3.1925 4.8774-0.50455 9.5641 2.594 14.429 1.1935 3.5641-0.17139 6.2552-3.0868 7.594-6.1777 1.1755-2.5578 1.6165-5.3614 2.5443-8.0071 0.68913-2.277 1.1233-5.2176-0.92368-6.9432-2.028-1.447-4.3967-2.3574-6.4874-3.7193-1.8435-1.3012-4.1961-2.2394-5.4658-4.1402-0.86124-1.885-0.42459-4.4174-2.1554-5.847-0.48473-0.34402-1.0895-0.46945-1.6751-0.47391l2e-4 1e-4z" fill="#f00" opacity=".512"/>
 <path d="m222.21 329.36c-2.2875 3.6185-5.6726 7.044-5.7359 11.589-0.057495 3.3151 0.52409 6.6079 1.0854 9.8644 0.71634 3.2489 0.98807 6.8071-0.66289 9.8337-1.4613 3.4584-3.7252 6.5816-6.7375 8.8471 1.823-1.4006 3.3003-3.2117 5.2981-4.4088 1.5825-1.1735 3.4341-1.3786 5.0813-2.5861 2.7039-1.4969 5.6168-3.6661 8.8804-2.8492 5.824 0.7207 4.1818-7.6873 10.055-7.4836 2.896 0.045715 9.9987 1.4542 11.751-0.931 1.9006-2.2179 6.5116 2.2086 8.0989-0.2171 1.1609-2.106 1.0845-5.4737-1.4861-6.4834-3.1594-1.4801-6.4273-2.7539-9.6252-4.1652-6.3112-3.0023-13.248-4.9343-18.813-9.3177-2.1546-1.3481-4.8016-1.1276-7.1892-1.6921z" fill="#f60" opacity=".512"/>
 <path d="m235.18 335.04c-1.9814 2.1479-5.112 0.76056-7.6182 1.3004-2.793-0.086975-4.0607 2.5652-5.4495 4.511-2.2203 2.7171 0.005539 6.0147 0.3295 8.985 0.14446 3.0227-2.6094 5.3842-4.8575 6.9525-1.8938 2.4841-4.8703 4.9195-4.0638 8.4128-0.28636-0.063782 0.59369-5.3445 3.1632-5.2763 2.6804 0.21295 4.705 3.7644 7.6384 1.6434 2.8582-1.0474 4.832-3.4596 7.1741-5.298 2.8024-2.8271 5.2743-6.1281 6.8997-9.76 0.64008-2.7756 0.86479-5.7036 0.63049-8.5377-0.3467-2.5896-4.9859-0.042633-5.1684-2.2695 0.42947-0.24396 0.89854-0.40494 1.322-0.66357z" fill="#f00"/>
 <path d="m120.25 246.28c-13.322 19.165-29.103 37.805-35.81 59.319-10.799 24.09-11.321 47.195-19.792 71.27-2.9835 25.334-25.269 47.718-39.585 70.491-10.622 13.008-13.584 5.2985-1.6309-3.3686 19.166-19.518 42.192-43.227 64.807-42.966 15.326-0.94791 31.027-0.13675 47.769-11.265 25.424-13.532 47.416-36.95 66.847-61.111 9.002-12.325 30.199-32.47 27.271-42.628-17.614 8.59-29.273-1.5214-42.465-5.0096-13.821-6.2819-24.162-17.177-35.661-26.445-9.9339-3.088-17.176-17.285-29.256-12.227l-2.4955 3.9407z" fill="#fc0"/>
 <path d="m132.66 241.56c-15.931 20.129-36.548 39.654-44.091 63.602-3.8414 12.259-0.76634 22.337-4.1503 34.531-5.229 24.557-19.604 49.766-35.966 72.301-8.0124 19.491-28.59 27.822-40.493 44.304-3.19 4.322-4.998 11.678 0.6586 4.1278 14.208-16.587 21.121-39.988 39.543-52.198 22.579-8.125 32.533 15.11 55.511 5.961 23.049-6.5265 49.23-16.914 69.191-40.542 16.122-17.723 25.05-39.674 31.221-60.18 2.9014-10.24 6.8802-20.692 9.3867-30.817 2.3836-21.394-10.892-33.064-24.164-40.689-5.7435-4.8146-14.195-4.6472-23.107-2.5985-11.541 2.0238-23.631 4.8941-33.54 2.1976z" fill="#ff0" opacity=".512"/>
 <path d="m137.67 242.73c-10.557 14.25-24.96 28.04-28.903 44.732-3.0181 9.344-5.3501 18.735-6.1552 27.713-1.1402 8.6739-0.90018 16.958-2.4388 25.718-5.6208 21.687-22.517 42.642-40.608 57.025-2.0344 2.1746-7.1099 5.9366-2.0803 0.99051 6.3824-5.8915 13.18-13.587 20.593-15.556 17.756-4.7727 31.484 4.945 50.029-3.3971 12.791-2.7002 25.041-15.86 32.661-28.955 6.5455-10.875 10.716-22.315 16.466-33.401 4.5604-9.4787 8.8347-21.462 3.185-27.193-5.8417-4.6287-13.39-6.923-19.533-11.177-5.3232-4.1512-12.788-6.5656-15.521-13.435-1.2989-7.037 2.6043-17.393-2.2-22.12-1.3979-1.0991-3.4247-1.2577-5.4959-0.94432l5e-4 3e-4z" fill="#f00" opacity=".512"/>
 <path d="m138.25 248.88c-11.473 15.738-26.657 31.326-31.109 49.504-3.2875 13.265-4.2892 26.08-5.3293 38.762-0.48334 12.563-2.8302 26.613-11.497 39.628-8.396 14.632-19.325 28.379-32.109 39.126 7.764-6.6219 14.684-14.687 22.878-20.595 6.7001-5.5794 13.454-7.4452 20.415-13.197 10.976-7.5044 23.317-17.811 34.124-16.396 19.971-0.41724 21.972-33.051 42.597-35.56 10.221-1.4555 34.084 0.14951 42.513-10.363 8.7994-9.9282 21.024 5.1329 28.906-5.4475 6.0734-9.063 8.9353-22.463 0.76404-25.039-9.8204-4.121-20.218-7.3573-30.239-11.182-19.575-8.4144-42.361-12.203-58.009-26.552-6.3823-4.1627-15.969-1.7852-23.906-2.6879z" fill="#f60" opacity=".512"/>
 <path d="m178.92 264.23c-9.0204 9.6946-18.825 5.9274-28.21 9.4997-9.818 1.2327-16.778 12.536-23.51 21.089-10.397 12.102-5.5752 24.006-7.1901 35.679-2.2998 11.984-14.257 22.968-23.683 30.5-9.0228 10.987-21.837 22.392-22.228 35.88-0.95555-0.092682 7.0757-21.67 16.119-22.851 9.3018-0.66608 13.174 12.365 25.543 2.2396 11.104-5.7976 20.344-16.543 30.354-25.206 12.562-12.87 24.393-27.445 33.532-42.862 4.8504-11.441 8.3705-23.256 10.176-34.437 1.1802-10.141-17.631 2.6499-16.206-6.1359 1.749-1.2166 3.5613-2.1246 5.3027-3.3966z" fill="#f00"/>
 <path d="m161.56 333.76c-4.8815 3.4447-9.3305 7.6903-15.682 8.9414-6.7647 2.4441-14.293 1.6689-21.299 3.3755-7.9996-0.085114-12.99 6.0708-18.95 9.6838-3.1462 2.839-0.30257 4.0921 1.2781 0.6543 4.3794-5.2833 9.726-11.62 7.2488-18.803-1.3095-4.8215-3.236-9.8336-1.3541-14.69 1.7528-7.5117 7.1135-13.532 12.988-18.711 3.0932-2.353 7.4637-8.2549 11.107-6.913-0.95677 5.236 3.5948 9.345 6.1347 13.67 3.5233 4.6387 8.1927 8.3614 12.451 12.385 2.064 3.2759 7.4896 6.1506 7.1067 9.7752l-1.0295 0.631z" fill="#fc0"/>
 <path d="m161.8 330.02c-4.9219 4.2327-9.1502 9.9759-16.212 11.393-3.6173 0.71915-7.2503-0.66623-10.894-0.089478-7.507 0.65863-14.261 4.191-19.927 8.4626-5.5499 1.7475-6.1081 7.9341-10.259 11.038-1.0812 0.83569-3.3042 1.1096-1.4244-0.37686 3.9417-3.8304 10.891-5.07 12.95-10.415 0.27916-6.8294-8.3994-10.932-7.8266-17.846-0.2952-7.0435 0.34563-14.923 5.9898-20.292 4.112-4.3911 10.372-6.3289 16.45-7.4511 3.0542-0.50324 6.0638-1.3395 9.1218-1.7223 6.7697 0.11496 12.004 4.7998 15.91 9.319 2.1876 2.0174 3.0263 4.6907 3.2963 7.4335 0.55614 3.5774 0.89261 7.2947 2.8254 10.547z" fill="#ff0" opacity=".512"/>
 <path d="m160.89 328.38c-3.5607 2.7678-6.5638 6.7737-11.625 7.3448-2.7476 0.57678-5.5834 0.93402-8.4449 0.82385-2.7263 0.008514-5.4705-0.40478-8.183-0.27347-6.5234 0.89972-11.615 5.4049-14.422 10.556-0.49859 0.55661-1.1966 2.013-0.10515 0.61935 1.2588-1.7842 3.0657-3.6264 2.9281-5.8972-0.31114-5.4364-4.9523-10.186-4.1754-15.727-0.46641-3.9465 2.5575-7.2953 6.0496-9.1788 2.8771-1.633 6.191-2.49 9.2215-3.862 2.6288-1.0604 6.11-1.928 8.5883 0.096893 2.1369 2.0409 3.6881 4.528 5.7338 6.6491 1.9254 1.8571 3.5073 4.3228 6.0508 5.4688 2.447 0.69833 5.4331-0.11789 7.4928 1.5981 0.50854 0.48804 0.7749 1.1372 0.89108 1.7813l-2e-4 -2e-4z" fill="#f00" opacity=".512"/>
 <path d="m158.81 327.95c-3.952 2.9978-7.4627 7.1783-12.958 7.8502-4.0062 0.50256-8.1063 0.29858-12.159 0.11218-4.0724-0.35812-8.4355-0.18579-11.791 2.0327-3.9144 2.067-7.2708 4.9731-9.4463 8.5896 1.3524-2.1926 3.2677-4.0588 4.3403-6.4169 1.1227-1.8976 1.021-3.9633 2.1727-5.9368 1.3024-3.175 3.3801-6.6693 1.7729-10.154-1.9749-6.3161 8.5242-5.6224 7.1667-12.061-0.60313-3.1821-3.6533-10.815-1.0944-13.06 2.328-2.3863-3.9078-6.876-1.2688-8.9449 2.3324-1.5571 6.4277-1.9192 8.1375 0.77698 2.391 3.282 4.5527 6.7109 6.8676 10.044 4.8317 6.5502 8.4847 13.93 14.849 19.477 2.0411 2.1934 2.2745 5.1367 3.4101 7.6903z" fill="#f60" opacity=".512"/>
 <path d="m149.47 314.42c-2.228 2.4659 0.045242 5.7286-0.13487 8.5591 0.63361 3.0633-2.3404 4.8103-4.4356 6.5971-2.8725 2.8044-7.2894 0.79086-10.95 0.82779-3.6902 0.24149-6.0308 3.5861-7.5061 6.2688-2.652 2.4141-5.0401 6.0136-9.4257 5.5885 0.13146 0.30682 6.3641-1.3618 5.7953-4.1814-0.765-2.9227-5.4514-4.6809-3.4361-8.1913 0.72862-3.2853 3.2783-5.7779 5.0631-8.5999 2.8957-3.4598 6.4282-6.6185 10.522-8.8891 3.2423-1.0724 6.7478-1.7078 10.226-1.8254 3.2036 0.038513 0.99468 5.4833 3.7276 5.3891 0.21442-0.50507 0.32074-1.0428 0.55408-1.5433z" fill="#f00"/>
 <g fill-rule="evenodd">
  <path d="m356.3 17.956c-12.617-9.2441-34.925-5.5225-62.38 15.327-60.791 43.758-153.29 158.37-160.26 181.2-9.6264 30.988 6.6758 61.856 30.962 78.482 0.73595 0.50382 1.4906 1.001 2.2421 1.4786 6.0121 3.8209 12.51 6.7924 19.253 8.7144 0.84299 0.24026 1.6839 0.46127 2.5342 0.66843 17.856 4.35 33.533 0.097565 54.99-10.811 31.334-29.354 92.776-137.97 118-210.76 11.337-30.997 7.2784-55.056-5.339-64.301z" fill="#7852A9"/>
  <path d="m250.52 285.51c-25.354 1.6064-51.895-5.5683-72.194-19.934-20.27-14.345-33.919-35.229-40.847-59.628-1.703 2.7251-3.4073 5.4656-5.1178 8.2555-23.87 33.729 4.0904 65.321 28.736 82.202 0.74686 0.5115 1.5125 1.0164 2.2749 1.5017 23.738 15.88 55.559 30.103 80.17-4.6723 2.2354-2.7264 5.0299-5.285 6.9784-7.7246z" fill="#7852A9"/>
  <path d="m356.3 17.953c-12.617-9.2441-34.925-5.5225-62.38 15.327-8.5488 6.1535-17.734 13.713-27.21 22.217 3.5907 17.622 13.862 34.214 30.051 45.671 15.99 11.316 34.788 15.532 52.411 13.25 4.7326-11.204 8.9506-22.031 12.46-32.158 11.337-30.997 7.2856-55.062-5.3318-64.307z" fill="#808080"/>
  <path d="m356.3 17.953c-12.618-9.2442-34.925-5.5225-62.38 15.327-55.319 39.819-136.89 138.3-156.38 172.92-0.023071-0.080688-0.043915-0.161-0.066879-0.24225-1.7026 2.7256-3.4143 5.4606-5.1249 8.2508-16.763 23.687-7.9383 46.31 7.3282 63.534 14.222-34.516 36.3-70.06 64.328-113.86 54.889-79.829 114.95-143.37 152.3-145.93z" fill="#1c2224" opacity=".369"/>
  <path d="m206.68 226.98c-6.3767-4.1893-16.023-3.9596-26.784 2.5069-24.754 13.797-43.546 28.511-62.822 61.746-2.964 15.392 11.429 33.139 28.088 41.231 1.7086 0.82999 3.4468 1.5644 5.187 2.178 9.1359 3.2211 18.48 3.2965 25.683-1.685 0.74094-0.84998 1.4636-1.7074 2.1731-2.551 21.997-26.152 29.15-49.356 35.163-77.23 3.1864-12.266 0.099915-21.735-6.6881-26.195z" fill="#7852A9"/>
  <path d="m138.35 206.17c-9.3663 17.34-13.185 26.49-21.415 46.103-16.456 10.562-48.945-12.081-44.746-30.453 14.952-23.848 29.759-38.403 49.801-48.686 15.452-6.9484 42.9-2.7523 36.928 4.8575-9.1047 11.602-13.708 16.947-20.568 28.178z" fill="#a00"/>
  <path d="m249.19 284.61c-13.238 14.6-20.597 21.245-36.356 35.53-4.4875 19.033 27.672 42.14 43.602 32.07 17.517-22.033 26.319-40.838 29.35-63.158 1.4136-16.883-11.673-41.373-16.863-33.21-7.9132 12.445-11.423 18.564-19.733 28.769z" fill="#7852A9"/>
  <path d="m121.99 240.28c-9.3757 0.096848-18.647-2.5308-26.623-8.1751-7.5412-5.3368-12.941-12.67-16.066-20.954-2.3848 3.3339-4.7473 6.8883-7.1179 10.669-4.199 18.372 28.297 41.022 44.753 30.46 1.8818-4.4844 3.5134-8.3875 5.053-12.001z" fill="#500"/>
  <g fill="#7852A9"> 
   <path d="m222.46 311.38c3.027 8.8741 8.5888 16.744 16.564 22.388 7.5412 5.3369 16.253 7.9904 25.104 8.1818-2.3509 3.3578-4.9172 6.768-7.6946 10.261-15.93 10.07-48.098-13.042-43.611-32.075 3.6032-3.2662 6.7414-6.1031 9.637-8.7568z"/>
   <path d="m128.25 273.93c-3.7353 5.1663-7.439 10.881-11.164 17.304-2.964 15.392 11.429 33.139 28.088 41.231 1.7086 0.82996 3.4468 1.5644 5.187 2.178 9.1358 3.2212 18.48 3.2965 25.683-1.685 0.74094-0.85004 1.4635-1.7074 2.1731-2.5511 3.9178-4.6577 7.3542-9.2144 10.408-13.728-12.91 0.08783-25.868-3.6602-37.092-11.603-11.23-7.9476-19.074-18.932-23.283-31.145z"/>
  </g>
  <path d="m305.39 169.01c-13.488 19.06-41.594 22.358-62.776 7.3676s-27.419-42.593-13.931-61.653 41.594-22.358 62.776-7.3677 27.419 42.593 13.931 61.653z" fill="#333"/>
  <path d="m296.3 163.23c-10.114 14.292-30.727 17.094-46.039 6.2578s-19.526-31.207-9.4109-45.499 30.727-17.094 46.039-6.2578 19.526 31.207 9.4109 45.499z" fill="#1a1a1a"/>
  <path d="m292.67 160.53c-9.8892 13.974-30.319 16.517-45.631 5.6812s-19.708-30.949-9.819-44.923c9.8892-13.974 30.319-16.517 45.631-5.6812s19.708 30.949 9.8189 44.923z" fill="#666"/>
  <path d="m294.47 161.91c-9.7503 13.778-30.067 16.162-45.379 5.3259s-19.821-30.79-10.07-44.567c9.7503-13.778 30.067-16.162 45.379-5.3259s19.821 30.79 10.07 44.567z" fill="#80b3ff"/>
 </g>
 <g fill="#d5e5ff">
  <path d="m293.51 132.28c-2.0645-9.68-14.935-3.2454-11.791 4.9861 0.53955 7.9709 9.3238 18.684 0.089111 24.722-3.7033 0.90913-7.3605 7.8639-0.95233 6.1455 6.7394-5.0162 11.356-12.967 14.427-20.622 1.0176-5.0345 0.94507-10.716-1.7731-15.232z"/>
  <path d="m252.5 140.32c-1.7456-3.1375-2.3134-7.4384-6.2721-8.6706-3.6216-0.45558-5.4804 4.006-5.6861 7.0043-0.43153 3.8579 1.3606 7.6181 4.4386 9.9168 2.2655 1.9252 4.8614 3.3964 7.3002 5.0812 3.7481-0.49542 4.0499-5.4081 2.711-8.1803-0.67421-1.7895-1.6681-3.4313-2.4916-5.1515z"/>
 </g>
 <g fill-rule="evenodd">
  <path d="m205.24 226.13c-6.3432-3.2714-15.363-2.6311-25.333 3.3608-19.971 11.131-36.064 22.874-51.658 44.442-0.46938 0.64926-0.92873 1.3071-1.3978 1.9747-0.43066 0.61337-0.86066 1.2263-1.2911 1.8552-0.095871 0.14029-0.19972 0.27692-0.29577 0.41834-0.32085 0.47198-0.64003 0.93738-0.96072 1.4186-0.085152 0.12775-0.16595 0.25684-0.25109 0.38461-0.031693 0.048523-0.069504 0.096008-0.10173 0.14444-0.43268 0.65256-0.86268 1.313-1.2948 1.9829-0.054977 0.084717-0.10429 0.16983-0.15935 0.2551-0.41073 0.63794-0.81435 1.2914-1.2249 1.9454-0.4622 0.73584-0.9287 1.4836-1.3903 2.2396-0.4668 0.76315-0.93538 1.5334-1.4023 2.3178-0.46675 0.78323-0.92699 1.5618-1.394 2.3668-0.092598 0.48123-0.16226 0.95889-0.22171 1.444-0.11985 0.97583-0.17965 1.9423-0.16973 2.9302 0.00956 0.98331 0.085716 1.9761 0.21632 2.9655 0.32659 2.4747 1.016 4.9692 2.0176 7.4207 0.40077 0.98108 0.85342 1.9571 1.3489 2.9238 0.24807 0.48309 0.50822 0.95908 0.77821 1.4379 0.54056 0.95767 1.129 1.9067 1.7536 2.8413 1.2492 1.8703 2.6443 3.6838 4.1851 5.4285 0.003883 0.00412 0.01049 0.005798 0.014389 0.009888 0.56985 0.64456 1.1644 1.2783 1.7694 1.9013 2.8486-16.105 10.259-33.817 22.035-50.456 15.707-22.194 35.783-37.701 54.427-43.953l5e-4 1e-4z" fill="#2b0000" opacity=".381"/>
  <path d="m157.84 173.05c-5.9245-4.065-24.275-5.1282-35.864 0.082932-16.865 8.6524-30.017 20.32-42.674 38.014-0.023941 0.033203-0.047501 0.067642-0.071449 0.10086-0.48019 0.67264-0.95495 1.3674-1.4341 2.0574-0.091484 0.13129-0.18434 0.25717-0.27537 0.38911-0.37907 0.54872-0.75581 1.1041-1.1344 1.6638-0.4662 0.6916-0.93465 1.3932-1.4009 2.102-0.34138 0.51895-0.68269 1.0408-1.0239 1.569-0.59298 0.91666-1.185 1.8415-1.7778 2.7875-0.45914 2.0092-0.47672 4.0779-0.12715 6.1409 0.050079 0.29439 0.097023 0.57681 0.16196 0.87144 0.32402 1.4771 0.84548 2.949 1.5138 4.4033 0.22141 0.48146 0.45889 0.95935 0.7144 1.4357 0.050179 0.093277 0.097664 0.18552 0.14904 0.27844 0.47561 0.8636 0.99762 1.7035 1.5758 2.5432 0.003242 0.004578 0.01104 0.00589 0.014381 0.009888 0.95586 1.387 2.0421 2.7519 3.2385 4.0447 1.6801 1.8158 3.5704 3.5242 5.6059 5.0709 8.1428 6.1869 18.587 9.8266 26.899 7.7856 1.4844-0.36461 2.9018-0.91589 4.2257-1.6606 0.26469-0.14908 0.52483-0.29832 0.78193-0.46358 1.8823-4.4845 3.5135-8.3872 5.0529-12.001 5.1942-12.19 9.1216-20.727 16.346-34.103 6.8589-11.231 11.471-16.587 20.576-28.188 1.4928-1.9025 0.90222-3.5798-1.0728-4.9347z" fill="#7852A9"/>
  <path d="m258.38 272.28c-2.6529 3.919-5.4216 7.7165-9.1878 12.341-10.212 11.262-16.956 17.805-26.725 26.758-1.3129 1.2027-2.6488 2.4199-4.0877 3.7275-1.807 1.6415-3.477 3.1508-5.5497 5.0295-0.07016 0.29706-0.12395 0.59232-0.17673 0.89175-0.26204 1.4962-0.31091 3.0164-0.16051 4.5375 0.030533 0.30829 0.074631 0.62122 0.12068 0.92926 0.045044 0.30042 0.082657 0.60077 0.14154 0.9007 0.001007 0.00415 0.01384 0.006317 0.014847 0.010529 0.059448 0.29999 0.11668 0.59274 0.19061 0.89175 0.075226 0.30841 0.16856 0.61127 0.2583 0.91864 0.088684 0.30325 0.16663 0.60236 0.26871 0.90439 0.001587 0.004272 0.013382 0.005676 0.014954 0.009979 0.10051 0.29776 0.2038 0.59943 0.31769 0.89603 0.20384 0.53119 0.43289 1.0558 0.67602 1.5816 7.076-5.0815 15.312-12.98 23.17-22.653 11.746-14.457 19.452-28.923 20.713-37.676z" fill="#290000" fill-opacity=".145"/>
 </g>
 <path d="m362.39 55.868c-2.2795 10.918-2.8962 18.014-21.073 31.33 15.612-17.379 14.586-58.114 17.694-54.574 5.4071 1.7225 5.7635 11.825 3.3794 23.244z" fill="#fff" opacity=".213"/>
 <path d="m288.53 105.44c-20.779-12.731-46.964-8.9019-59.841 9.2928-12.886 18.208-7.7689 44.198 11.182 59.555-15.199-16.404-18.584-39.772-6.7857-56.444 11.789-16.658 34.931-21.253 55.444-12.404z" fill="#2b2b2b" fill-rule="evenodd"/>
 <path d="m280.14 279.81c-1.0008 5.9353-3.5942 10.446-5.7924 10.076-2.1982-0.3707-3.169-5.4827-2.1682-11.418s3.5942-10.446 5.7924-10.076c2.1983 0.37067 3.169 5.4827 2.1682 11.418z" fill="#fff" opacity=".213"/>
 <path d="m213.64 206.41l4.8651 3.443 11.884-16.792-6.0438-2.6841 1.9197-2.7126 6.0143 2.6632 2.978 2.1075-13.803 19.505 4.8651 3.443-1.7737 2.5062-12.679-8.9726 1.7737-2.5063" fill="#7852A9"/>
 <path transform="matrix(1 0 0 1 0 0) matrix(1 0 0 1 0 0) matrix(1 0 0 1 0 0) matrix(1 0 0 1 0 0) matrix(1 0 0 1 0 0)" d="m243.58 214.84c-6.9541 9.8264-20.557 12.155-30.384 5.2008-9.8264-6.9541-12.155-20.557-5.2008-30.384 6.9541-9.8264 20.557-12.155 30.384-5.2008 9.8264 6.9541 12.155 20.557 5.2008 30.384z" fill="#1c2224"/>
 <path d="m202.29 249.94c-5.0688 6.5929-11.311 10.462-13.942 8.6426-2.6309-1.8197-0.65457-8.6396 4.4143-15.232 5.0688-6.5929 11.311-10.462 13.942-8.6426 2.6309 1.8197 0.65457 8.6396-4.4143 15.232z" fill="#fff" opacity=".213"/>
</svg>
